<?xml version="1.0" encoding="UTF-8"?>
<svg width="222px" height="28px" viewBox="0 0 222 28" version="1.1" xmlns="http://www.w3.org/2000/svg" xmlns:xlink="http://www.w3.org/1999/xlink">
    <!-- Generator: Sketch 48.1 (47250) - http://www.bohemiancoding.com/sketch -->
    <title>SCHEDULER</title>
    <desc>Created with Sketch.</desc>
    <defs></defs>
    <g id="Identify" stroke="none" stroke-width="1" fill="none" fill-rule="evenodd" transform="translate(-77.000000, -223.000000)">
        <g id="Group-5" transform="translate(20.000000, 223.000000)" fill="#FFFFFF">
            <path d="M65.688,16.878 C64.4559938,16.4579979 63.336005,16.0310022 62.328,15.597 C61.319995,15.1629978 60.4520036,14.6380031 59.724,14.022 C58.9959964,13.4059969 58.429002,12.6710043 58.023,11.817 C57.616998,10.9629957 57.414,9.92000616 57.414,8.688 C57.414,6.3079881 58.3309908,4.40400714 60.165,2.976 C61.9990092,1.54799286 64.5679835,0.834 67.872,0.834 C69.076006,0.834 70.1959948,0.91799916 71.232,1.086 C72.2680052,1.25400084 73.1569963,1.51299825 73.899,1.863 C74.6410037,2.21300175 75.2219979,2.66099727 75.642,3.207 C76.0620021,3.75300273 76.272,4.38999636 76.272,5.118 C76.272,5.84600364 76.1040017,6.46899741 75.768,6.987 C75.4319983,7.50500259 75.0260024,7.94599818 74.55,8.31 C73.9339969,7.91799804 73.1080052,7.57500147 72.072,7.281 C71.0359948,6.98699853 69.9020062,6.84 68.67,6.84 C67.4099937,6.84 66.4860029,7.01499825 65.898,7.365 C65.3099971,7.71500175 65.016,8.15599734 65.016,8.688 C65.016,9.1080021 65.1979982,9.45099867 65.562,9.717 C65.9260018,9.98300133 66.4719964,10.2279989 67.2,10.452 L69.426,11.166 C72.0580132,12.0060042 74.0809929,13.0769935 75.495,14.379 C76.9090071,15.6810065 77.616,17.4519888 77.616,19.692 C77.616,22.0720119 76.6780094,23.9969926 74.802,25.467 C72.9259906,26.9370073 70.1680182,27.672 66.528,27.672 C65.2399936,27.672 64.0430055,27.567001 62.937,27.357 C61.8309945,27.1469989 60.8650041,26.839002 60.039,26.433 C59.2129959,26.026998 58.5690023,25.523003 58.107,24.921 C57.6449977,24.318997 57.414,23.6260039 57.414,22.842 C57.414,22.0299959 57.6519976,21.3370029 58.128,20.763 C58.6040024,20.1889971 59.1219972,19.7480015 59.682,19.44 C60.4660039,20.0560031 61.4249943,20.5879978 62.559,21.036 C63.6930057,21.4840022 64.9319933,21.708 66.276,21.708 C67.6480069,21.708 68.6139972,21.4980021 69.174,21.078 C69.7340028,20.6579979 70.014,20.1680028 70.014,19.608 C70.014,19.0479972 69.7900022,18.6210015 69.342,18.327 C68.8939978,18.0329985 68.2640041,17.7460014 67.452,17.466 L65.688,16.878 Z M94.752,6.672 C92.5959892,6.672 90.9440057,7.32999342 89.796,8.646 C88.6479943,9.96200658 88.074,11.823988 88.074,14.232 C88.074,16.6680122 88.7109936,18.5439934 89.985,19.86 C91.2590064,21.1760066 92.9739892,21.834 95.13,21.834 C96.2780057,21.834 97.250996,21.6800015 98.049,21.372 C98.847004,21.0639985 99.6099964,20.714002 100.338,20.322 C100.814002,20.714002 101.184999,21.1829973 101.451,21.729 C101.717001,22.2750027 101.85,22.9119964 101.85,23.64 C101.85,24.7880057 101.213006,25.760996 99.939,26.559 C98.6649936,27.357004 96.726013,27.756 94.122,27.756 C92.2459906,27.756 90.4820083,27.4900027 88.83,26.958 C87.1779917,26.4259973 85.7360062,25.6070055 84.504,24.501 C83.2719938,23.3949945 82.2990036,21.9950085 81.585,20.301 C80.8709964,18.6069915 80.514,16.5840118 80.514,14.232 C80.514,12.0479891 80.8569966,10.1230083 81.543,8.457 C82.2290034,6.79099167 83.166994,5.38400574 84.357,4.236 C85.5470059,3.08799426 86.939992,2.22000294 88.536,1.632 C90.132008,1.04399706 91.8399909,0.75 93.66,0.75 C96.2360129,0.75 98.2309929,1.1699958 99.645,2.01 C101.059007,2.8500042 101.766,3.92799342 101.766,5.244 C101.766,5.97200364 101.584002,6.60199734 101.22,7.134 C100.855998,7.66600266 100.436002,8.08599846 99.96,8.394 C99.2319964,7.91799762 98.4550041,7.51200168 97.629,7.176 C96.8029959,6.83999832 95.8440055,6.672 94.752,6.672 Z M128.52,26.832 C128.211998,26.9160004 127.729003,26.9999996 127.071,27.084 C126.412997,27.1680004 125.762003,27.21 125.118,27.21 C124.473997,27.21 123.907002,27.1610005 123.417,27.063 C122.926998,26.9649995 122.514002,26.7900013 122.178,26.538 C121.841998,26.2859987 121.590001,25.9360022 121.422,25.488 C121.253999,25.0399978 121.17,24.4520036 121.17,23.724 L121.17,17.172 L113.106,17.172 L113.106,26.832 C112.797998,26.9160004 112.315003,26.9999996 111.657,27.084 C110.998997,27.1680004 110.348003,27.21 109.704,27.21 C109.059997,27.21 108.493002,27.1610005 108.003,27.063 C107.512998,26.9649995 107.100002,26.7900013 106.764,26.538 C106.427998,26.2859987 106.176001,25.9360022 106.008,25.488 C105.839999,25.0399978 105.756,24.4520036 105.756,23.724 L105.756,1.548 C106.064002,1.49199972 106.553997,1.41500049 107.226,1.317 C107.898003,1.21899951 108.541997,1.17 109.158,1.17 C109.802003,1.17 110.368998,1.21899951 110.859,1.317 C111.349002,1.41500049 111.761998,1.58999874 112.098,1.842 C112.434002,2.09400126 112.685999,2.44399776 112.854,2.892 C113.022001,3.34000224 113.106,3.92799636 113.106,4.656 L113.106,11.376 L121.17,11.376 L121.17,1.548 C121.478002,1.49199972 121.967997,1.41500049 122.64,1.317 C123.312003,1.21899951 123.955997,1.17 124.572,1.17 C125.216003,1.17 125.782998,1.21899951 126.273,1.317 C126.763002,1.41500049 127.175998,1.58999874 127.512,1.842 C127.848002,2.09400126 128.099999,2.44399776 128.268,2.892 C128.436001,3.34000224 128.52,3.92799636 128.52,4.656 L128.52,26.832 Z M133.98,5.454 C133.98,4.24999398 134.329996,3.2980035 135.03,2.598 C135.730004,1.8979965 136.681994,1.548 137.886,1.548 L151.746,1.548 C151.942001,1.85600154 152.116999,2.26199748 152.271,2.766 C152.425001,3.27000252 152.502,3.8019972 152.502,4.362 C152.502,5.42600532 152.271002,6.18199776 151.809,6.63 C151.346998,7.07800224 150.738004,7.302 149.982,7.302 L141.12,7.302 L141.12,11.208 L150.57,11.208 C150.766001,11.5160015 150.940999,11.9149976 151.095,12.405 C151.249001,12.8950024 151.326,13.4199972 151.326,13.98 C151.326,15.0440053 151.102002,15.7999978 150.654,16.248 C150.205998,16.6960022 149.604004,16.92 148.848,16.92 L141.12,16.92 L141.12,21.33 L151.914,21.33 C152.110001,21.6380015 152.284999,22.0439975 152.439,22.548 C152.593001,23.0520025 152.67,23.5839972 152.67,24.144 C152.67,25.2080053 152.439002,25.9709977 151.977,26.433 C151.514998,26.8950023 150.906004,27.126 150.15,27.126 L137.886,27.126 C136.681994,27.126 135.730004,26.7760035 135.03,26.076 C134.329996,25.3759965 133.98,24.424006 133.98,23.22 L133.98,5.454 Z M164.304,21.54 C164.612002,21.5960003 164.989998,21.6449998 165.438,21.687 C165.886002,21.7290002 166.305998,21.75 166.698,21.75 C167.650005,21.75 168.524996,21.6100014 169.323,21.33 C170.121004,21.0499986 170.806997,20.6160029 171.381,20.028 C171.955003,19.4399971 172.402998,18.6770047 172.725,17.739 C173.047002,16.8009953 173.208,15.6740066 173.208,14.358 C173.208,11.8379874 172.620006,9.94100637 171.444,8.667 C170.267994,7.39299363 168.70001,6.756 166.74,6.756 C166.347998,6.756 165.949002,6.76999986 165.543,6.798 C165.136998,6.82600014 164.724002,6.86799972 164.304,6.924 L164.304,21.54 Z M166.656,27.672 C166.179998,27.672 165.634003,27.6580001 165.018,27.63 C164.401997,27.6019999 163.765003,27.5460004 163.107,27.462 C162.448997,27.3779996 161.791003,27.2730006 161.133,27.147 C160.474997,27.0209994 159.866003,26.8460011 159.306,26.622 C157.765992,26.0339971 156.996,25.0120073 156.996,23.556 L156.996,3.942 C156.996,3.35399706 157.156998,2.89900161 157.479,2.577 C157.801002,2.25499839 158.241997,1.99600098 158.802,1.8 C160.006006,1.40799804 161.279993,1.14900063 162.624,1.023 C163.968007,0.89699937 165.171995,0.834 166.236,0.834 C168.420011,0.834 170.400991,1.09999734 172.179,1.632 C173.957009,2.16400266 175.482994,2.98299447 176.757,4.089 C178.031006,5.19500553 179.017996,6.5879916 179.718,8.268 C180.418003,9.9480084 180.768,11.9359885 180.768,14.232 C180.768,16.4720112 180.432003,18.4249917 179.76,20.091 C179.087997,21.7570083 178.129006,23.1569943 176.883,24.291 C175.636994,25.4250057 174.146009,26.2719972 172.41,26.832 C170.673991,27.3920028 168.756011,27.672 166.656,27.672 Z M207.522,17.592 C207.522,19.1040076 207.263003,20.4829938 206.745,21.729 C206.226997,22.9750062 205.478005,24.0389956 204.498,24.921 C203.517995,25.8030044 202.328007,26.4819976 200.928,26.958 C199.527993,27.4340024 197.946009,27.672 196.182,27.672 C194.417991,27.672 192.836007,27.4340024 191.436,26.958 C190.035993,26.4819976 188.846005,25.8030044 187.866,24.921 C186.885995,24.0389956 186.137003,22.9750062 185.619,21.729 C185.100997,20.4829938 184.842,19.1040076 184.842,17.592 L184.842,1.548 C185.150002,1.49199972 185.639997,1.41500049 186.312,1.317 C186.984003,1.21899951 187.627997,1.17 188.244,1.17 C188.888003,1.17 189.454998,1.21899951 189.945,1.317 C190.435002,1.41500049 190.847998,1.58999874 191.184,1.842 C191.520002,2.09400126 191.771999,2.44399776 191.94,2.892 C192.108001,3.34000224 192.192,3.92799636 192.192,4.656 L192.192,17.466 C192.192,18.8100067 192.562996,19.8599962 193.305,20.616 C194.047004,21.3720038 195.005994,21.75 196.182,21.75 C197.386006,21.75 198.351996,21.3720038 199.08,20.616 C199.808004,19.8599962 200.172,18.8100067 200.172,17.466 L200.172,1.548 C200.480002,1.49199972 200.969997,1.41500049 201.642,1.317 C202.314003,1.21899951 202.957997,1.17 203.574,1.17 C204.218003,1.17 204.784998,1.21899951 205.275,1.317 C205.765002,1.41500049 206.177998,1.58999874 206.514,1.842 C206.850002,2.09400126 207.101999,2.44399776 207.27,2.892 C207.438001,3.34000224 207.522,3.92799636 207.522,4.656 L207.522,17.592 Z M216.762,27.126 C215.557994,27.126 214.606003,26.7760035 213.906,26.076 C213.205996,25.3759965 212.856,24.424006 212.856,23.22 L212.856,1.506 C213.164002,1.44999972 213.653997,1.37300049 214.326,1.275 C214.998003,1.17699951 215.641997,1.128 216.258,1.128 C216.902003,1.128 217.468998,1.17699951 217.959,1.275 C218.449002,1.37300049 218.861998,1.54799874 219.198,1.8 C219.534002,2.05200126 219.785999,2.40199776 219.954,2.85 C220.122001,3.29800224 220.206,3.88599636 220.206,4.614 L220.206,21.204 L229.824,21.204 C230.020001,21.5120015 230.201999,21.9249974 230.37,22.443 C230.538001,22.9610026 230.622,23.4999972 230.622,24.06 C230.622,25.1800056 230.384002,25.9709977 229.908,26.433 C229.431998,26.8950023 228.802004,27.126 228.018,27.126 L216.762,27.126 Z M234.402,5.454 C234.402,4.24999398 234.751996,3.2980035 235.452,2.598 C236.152003,1.8979965 237.103994,1.548 238.308,1.548 L252.168,1.548 C252.364001,1.85600154 252.538999,2.26199748 252.693,2.766 C252.847001,3.27000252 252.924,3.8019972 252.924,4.362 C252.924,5.42600532 252.693002,6.18199776 252.231,6.63 C251.768998,7.07800224 251.160004,7.302 250.404,7.302 L241.542,7.302 L241.542,11.208 L250.992,11.208 C251.188001,11.5160015 251.362999,11.9149976 251.517,12.405 C251.671001,12.8950024 251.748,13.4199972 251.748,13.98 C251.748,15.0440053 251.524002,15.7999978 251.076,16.248 C250.627998,16.6960022 250.026004,16.92 249.27,16.92 L241.542,16.92 L241.542,21.33 L252.336,21.33 C252.532001,21.6380015 252.706999,22.0439975 252.861,22.548 C253.015001,23.0520025 253.092,23.5839972 253.092,24.144 C253.092,25.2080053 252.861002,25.9709977 252.399,26.433 C251.936998,26.8950023 251.328004,27.126 250.572,27.126 L238.308,27.126 C237.103994,27.126 236.152003,26.7760035 235.452,26.076 C234.751996,25.3759965 234.402,24.424006 234.402,23.22 L234.402,5.454 Z M264.726,18.768 L264.726,26.832 C264.417998,26.9160004 263.935003,26.9999996 263.277,27.084 C262.618997,27.1680004 261.968003,27.21 261.324,27.21 C260.679997,27.21 260.113002,27.1610005 259.623,27.063 C259.132998,26.9649995 258.727002,26.7900013 258.405,26.538 C258.082998,26.2859987 257.838001,25.9360022 257.67,25.488 C257.501999,25.0399978 257.418,24.4520036 257.418,23.724 L257.418,3.942 C257.418,3.35399706 257.578998,2.89900161 257.901,2.577 C258.223002,2.25499839 258.663997,1.99600098 259.224,1.8 C260.176005,1.46399832 261.281994,1.21900077 262.542,1.065 C263.802006,0.91099923 265.145993,0.834 266.574,0.834 C270.438019,0.834 273.34999,1.64599188 275.31,3.27 C277.27001,4.89400812 278.25,7.09198614 278.25,9.864 C278.25,11.6000087 277.802004,13.0839938 276.906,14.316 C276.009996,15.5480062 274.946006,16.4999966 273.714,17.172 C274.722005,18.5440069 275.715995,19.831994 276.696,21.036 C277.676005,22.240006 278.445997,23.3319951 279.006,24.312 C278.725999,25.2920049 278.215004,26.0409974 277.473,26.559 C276.730996,27.0770026 275.898005,27.336 274.974,27.336 C274.357997,27.336 273.826002,27.2660007 273.378,27.126 C272.929998,26.9859993 272.538002,26.7900013 272.202,26.538 C271.865998,26.2859987 271.558001,25.9780018 271.278,25.614 C270.997999,25.2499982 270.732001,24.8580021 270.48,24.438 L266.952,18.768 L264.726,18.768 Z M267.372,13.182 C268.436005,13.182 269.275997,12.9090027 269.892,12.363 C270.508003,11.8169973 270.816,11.0120053 270.816,9.948 C270.816,8.88399468 270.473003,8.07900273 269.787,7.533 C269.100997,6.98699727 268.016007,6.714 266.532,6.714 C266.111998,6.714 265.776001,6.72799986 265.524,6.756 C265.271999,6.78400014 264.992002,6.82599972 264.684,6.882 L264.684,13.182 L267.372,13.182 Z" id="SCHEDULER"></path>
        </g>
    </g>
</svg>